<svg id="Layer_3" data-name="Layer 3" xmlns="http://www.w3.org/2000/svg" viewBox="0 0 266.84 87.73"><defs><style>.cls-1{fill:#4285f4;stroke:#4285f4;stroke-width:5px;}.cls-1,.cls-2,.cls-3,.cls-4{stroke-miterlimit:10;}.cls-2,.cls-3,.cls-4{fill:none;}.cls-2{stroke:#e43b31;}.cls-2,.cls-4{stroke-width:7px;}.cls-3{stroke:#31a04f;stroke-width:9px;}.cls-4{stroke:#477af0;}</style></defs><title>Artboard 1</title><path class="cls-1" d="M56,15.61C27.66-1,9.23,22.59,8.85,38.13c-.29,11.9,4.85,27.41,27,27.26,27.78-.19,26.76-21.49,26.76-21.49H35.89V38.1h32.9C68,61.57,54.49,69.94,35.72,69.94S3.85,58,3.85,38.87,17.55,4.63,36.32,4.63c8.21,0,16.68,1.66,22.9,7.12Z"/><path class="cls-2" d="M254.17,56a16.86,16.86,0,0,1-14.58,8.83c-7,0-13.06-4.62-15.68-11.16a19.15,19.15,0,0,1-.75-2.27,19.44,19.44,0,0,1-.63-4.94c0-10.08,7.7-18.37,17.07-18.37,7.14,0,13.55,4.82,16,12l-32,12.82"/><line class="cls-3" x1="211.8" y1="4.18" x2="212.14" y2="68.51"/><path class="cls-4" d="M171.17,74.51S174,83,185,83a18.1,18.1,0,0,0,15.64-8.5l.53-31.72.08-16.94"/><circle class="cls-4" cx="184.16" cy="46.47" r="16.24"/></svg>