<svg xmlns="http://www.w3.org/2000/svg" viewBox="0 0 352.11 432.26"><defs><style>.cls-1{fill:#fff;}</style></defs><title>Asset 3</title><g id="Layer_2" data-name="Layer 2"><g id="Layer_1-2" data-name="Layer 1"><path class="cls-1" d="M221.93,270.61s50.49-120.83,106.75-58.29C328,211.14,346,257.63,312.8,266.9s-50.39,31.36-46.14,51.47S253.58,359,253.58,359c-11.4,14.41-96.39,35.59-96.39,35.59S98.65,494.44,24.37,347.2,82.47,113.53,105.72,82.81,209.54,36.9,261.43,11.93s59.06,21,60,21.19c5,21.48,20.58,61.17,27.9,81s-25.89,46.18-58.95,46.43S259.74,87,259.74,87"/><path d="M223.33,273.79a209.55,209.55,0,0,1,19.5-35.67c11.22-16.68,27.6-37.21,49.26-39.14,14.26-1.27,26.38,7.12,35.59,17.22,2.54,2.79,3.55-5.86,2-7.77l0,0c-1.23-1.51-2.46.35-2.71,1.61-.83,4.22,1.26,8.49,2.2,12.55,1.56,6.73,2.51,14,1.28,20.82a23.47,23.47,0,0,1-14.86,18.07c-6.38,2.53-13,4-19.21,7.07A71.12,71.12,0,0,0,281,278.46c-7.47,6.43-13.52,14.72-15.81,24.43-2.61,11.06,1.88,21.74-1.7,32.65a57,57,0,0,1-11,19.76c-3.86,4.3-9.91,6.87-15.07,9.2-16.76,7.58-34.59,12.92-52.23,18q-10.21,3-20.49,5.67c-2.39.63-6.55.87-8.48,2.55-.81.71-1.42,2.22-2,3.1a87.66,87.66,0,0,1-5.72,7.35,70.16,70.16,0,0,1-21,17c-29,14.68-56.27-6.65-73.74-28.91a253.28,253.28,0,0,1-41-76.63C5.59,290.91,2.35,268,4.77,245.19c4-37.71,22.68-71.56,46.57-100.34A446.42,446.42,0,0,1,82.8,111.27c7.55-7.39,15.61-14.51,22.38-22.65C117.38,74,133.73,65.53,151.11,58.2c23.56-9.93,48.06-17.47,72.09-26.14,11.86-4.28,23.66-8.78,35.11-14.07,10.39-4.8,21.11-9.63,32.84-8.92,13,.79,22.2,9.51,26.75,21.21.63,1.61,1.09,5.94,3,7.18l-1.18-2.07c4.88,20.46,12.66,40.32,20,60q2.54,6.82,5.11,13.62c1.34,3.56,3.73,7.69,3.51,11.59-.52,9.19-10.37,17.46-17.24,22.23a74.72,74.72,0,0,1-33,12.7c-7.34.92-14.32.95-20.21-4-9.93-8.39-12.81-23.88-14.51-36.06A168.55,168.55,0,0,1,261.72,87c0-1.15-.27-4.5-2-4.5s-1.95,3.45-2,4.5a171.32,171.32,0,0,0,4.15,43.68c2.12,9.14,5.28,19,11.55,26.18,7.63,8.79,17.57,9.1,28.49,7.12,24.56-4.47,59-25.48,48.08-54.92-5.4-14.53-11-29-16.12-43.62-2.72-7.71-5.36-15.46-7.7-23.29-.91-3-1.78-6.11-2.55-9.19-.32-1.27-.88-2.47-1.21-3.68-.52-1.89.39,1.52.17.23.22,1.27-.21-.72-.37-1.22-.4-1.24-.82-2.48-1.28-3.7a51,51,0,0,0-4.09-8.44c-4.16-6.87-10.29-12.32-18.06-14.68-12.17-3.69-25.29.32-36.42,5.46-14.78,6.81-29.8,12.79-45.14,18.24-29.79,10.58-61.2,19.23-88.9,34.82-9.45,5.32-17.68,11.63-24.5,20.08A154.36,154.36,0,0,1,91.62,93c-29.34,28.81-58.28,58.11-75.68,96A171.79,171.79,0,0,0,0,263.15c.52,32.58,10.64,63.78,25.64,92.47,17.3,33.09,52.82,92,99.1,72.92,10.86-4.48,20.05-12.61,27.41-21.65,1.71-2.1,4.62-4.94,5.5-7.56.45-1.33.37-.46-.19-.29,1.9-.58,3.87-1,5.79-1.49,20.47-5.37,40.92-11.22,60.78-18.56,8.91-3.29,18.47-6.69,26.27-12.25,6.31-4.5,10.47-12.2,13.63-19a55.64,55.64,0,0,0,5.34-21.27c.23-6.61-2.21-13-.58-19.5,3.59-14.38,17.34-24.48,30.09-30.38,12-5.57,25.41-6.44,32-19.47,4.63-9.16,4.77-20.29,3.41-30.25-.78-5.77-2.69-11.14-3.84-16.79v4.53l-2.71,1.61,0,0,2-7.77c-8.47-9.29-19.15-17.54-32.13-18.49-10.64-.78-20.87,3.76-29.25,10-17.83,13.24-30.42,33.22-40.6,52.61-2.56,4.87-5,9.81-7.16,14.89-.74,1.77-1,4.64,0,6.36.83,1.41,2,1.82,2.8,0Z"/><path class="cls-1" d="M191.11,202c-15.55-12-28-14.43-37.49-12.84-15.81,2.65-23.39,16.58-23.39,16.58S104.56,251,152.58,238.16c0,0,35.26,2.64,51.65,14.19,8.57,6,55.33-14.1,35.49-53-8-15.6-13.38-32.37-20.28-48.43-6.46-15-14.67-33.42-27.92-43.73a63.78,63.78,0,0,0-6.82-4.43A52.58,52.58,0,0,0,175.18,98c-6.17-2.11-14.8-2-21.23-1.31C99.47,103,98.15,91.58,66.88,122.42"/><path d="M191.64,197.66c-9.23-7-20.1-13.15-32-13.42-9.92-.23-19,4.26-25.7,11.38-5.16,5.48-8.29,12.55-10.5,19.67-2.83,9.13-4.4,24.16,6.72,28.4a24,24,0,0,0,10,1.18c4.27-.26,8.44-2,12.61-2.19,6.24-.33,13.41,1.57,19.47,2.75,10.13,2,20.76,4.56,29.62,10.06,4.55,2.82,8.46,2.78,13.62,1.31,13.87-3.95,26.22-15,29.84-29.15,2.35-9.21,1.13-19-2.49-27.7-2.8-6.75-6.31-13.19-9.11-20-3-7.23-5.74-14.55-8.63-21.82-5-12.56-10.25-25.23-17.3-36.78a66.76,66.76,0,0,0-28-26c-11.93-5.91-25.24-3.07-37.91-2-9.74.8-19.49,1-29.25,1.47-6.16.29-12.33.79-18.2,2.78C87.74,99.89,82,104,76.63,108.55c-3.73,3.17-7.27,6.56-10.76,10-1.81,1.78-.7,10.42,2,7.77,9.74-9.57,20.22-19.32,34.19-21.52,6.32-1,12.78-1,19.17-1.25,10.36-.37,20.69-1,31-2.15a71.68,71.68,0,0,1,16.39-.29c6.83.83,12.62,4.11,18.36,7.71,10.73,6.74,17.79,17.55,23.43,28.66s10.17,22.56,14.65,34.07c2.5,6.41,5,12.83,7.71,19.15,2.64,6.11,6.23,12,8.31,18.34,4.93,15.07-4.57,28.27-17.51,35.34-4.56,2.49-10,4.77-15.32,4.54a8.07,8.07,0,0,1-4.38-1.5A66.86,66.86,0,0,0,191,241.33a146.67,146.67,0,0,0-26.37-6.22c-4.31-.65-9.14-1.88-13.45-1.07-7.88,1.47-27.16,5.38-25.67-8.16.5-4.53,2.29-9,4.2-13.09.53-1.14,1.09-2.28,1.69-3.39.14-.26.62-1.05-.05.07.42-.7.87-1.39,1.34-2.06,5.54-7.84,14.22-13.39,23.9-14.1,12.65-.92,24.28,5.67,34,13,2.06,1.55,3.34-7,1.05-8.68Z"/><path class="cls-1" d="M130,164.45"/><path d="M130,168.95c2.78,0,2.8-9,0-9s-2.8,9,0,9Z"/><path class="cls-1" d="M130,164.45s8.14,29.07,23.2,24.58"/><path d="M128.26,166.72c2.95,10.39,11,30.38,24.91,26.81,3-.76,2.26-9.58,0-9-12,3.08-18.89-13.16-21.49-22.35-1.59-5.61-4.24,1.66-3.42,4.54Z"/><path class="cls-1" d="M115,274.55s31.6-18.75,33.43-35.39"/><path d="M115.53,278.89c13.91-8.3,32.38-21.3,34.81-38.53.57-4-3-8.44-3.82-2.39-1.28,9-11.14,16.9-17.76,22.2a127.06,127.06,0,0,1-14.29,10c-2.38,1.42-1.39,10.13,1.05,8.68Z"/><path class="cls-1" d="M202.34,251.91c-3.21,5-12.11,12.77-17.37,15.57A36.74,36.74,0,0,1,167.14,272c-11.15-.21-19.85-5.83-18.84-17.76a48.76,48.76,0,0,1,3.83-14.16"/><path d="M201.34,248c-7,10.21-19.11,18.66-31.66,19.4-5.31.32-11.31-.45-15.57-3.92-6.51-5.3-3.19-13.69-.58-20.26.71-1.8,1-4.61,0-6.36-.81-1.38-2.07-1.85-2.8,0-5.32,13.4-8.56,33.9,9.49,38.66,16.46,4.34,34-6.48,43.12-19.75a7.69,7.69,0,0,0,.71-6.16c-.33-1-1.5-3.37-2.71-1.61Z"/><path class="cls-1" d="M230.2,133.78c2.3,10.14,5.32,21.94,6,31.77.73,11,2.24,22.45,2.83,32.65"/><path d="M228.49,136.06c2.32,10.15,5,20.29,5.78,30.7.86,10.89,2.15,21.75,2.83,32.65.08,1.26.77,3.73,2.44,3.14s1.46-4.34,1.38-5.54c-.72-11.41-1.92-22.83-3-34.22-1-10.58-3.69-21-6.05-31.28-.38-1.64-1.27-2.65-2.71-1.61s-1,4.77-.71,6.16Z"/><path class="cls-1" d="M133.88,77.89c9.78-13.69,40.51-10.75,55.21-10.94,15.16-.2,23.52,14.36,30,28,4.52,9.56,9.88,30.1,11.63,41"/><path d="M134.88,81.77c6.51-8.54,19.3-9.7,29.21-10.24,5.49-.3,11-.24,16.48-.16,5.19.08,10.88-.56,15.83,1.25,11.54,4.22,18.22,17.85,22.56,28.48a171.18,171.18,0,0,1,9.83,36c1,6,4.49,1.64,3.82-2.39a189.37,189.37,0,0,0-10.85-40c-4.54-11.13-11.5-25.17-23.12-30.31-5.26-2.33-10.81-1.94-16.41-2-6-.09-12.1-.19-18.14.13-10.85.59-24.12,2.17-31.2,11.47-1.54,2-.17,10.61,2,7.77Z"/><path class="cls-1" d="M260.06,102S231.31,163,237.39,179.62"/><path d="M258.65,98.77c-5.39,11.47-10.24,23.25-14.55,35.17a191.78,191.78,0,0,0-8,26.6c-1.38,6.77-2.74,14.62-.47,21.35,1.86,5.53,4.39-1.67,3.42-4.54-1.77-5.24.27-11.87,1.55-17a224,224,0,0,1,8.14-25.14c3.85-10.16,8-20.23,12.66-30.07,1.07-2.28-.75-10.72-2.8-6.36Z"/><path class="cls-1" d="M217.32,252.56a44.13,44.13,0,0,1,7.53,5.66"/><path d="M216.79,256.9a33.7,33.7,0,0,1,7.06,5.21c1.34,1.39,2.35-.27,2.71-1.61.43-1.63.61-4.79-.71-6.16a35.3,35.3,0,0,0-8-6.12c-2.5-1.39-3.49,7.32-1.05,8.68Z"/><path class="cls-1" d="M188.25,265.43a53.2,53.2,0,0,1,15.49-10.87"/><path d="M189.25,269.31a54.07,54.07,0,0,1,15-10.42c2.44-1.13,1.69-10-1.05-8.68a57.5,57.5,0,0,0-16,11.33c-1.82,1.77-.71,10.42,2,7.77Z"/><path d="M210.44,128.25c-.72-12.25-10.21-19.8-20.27-25.35-10.22-5.64-22.82-10.77-34.68-11-1.4,0-1.51,9,0,9,10,.15,20.43,4.06,29.38,8.26a68,68,0,0,1,15.36,9.51c3.3,2.81,8,7.27,8.3,11.94.37,6.22,2.1.84,1.91-2.39Z"/></g></g></svg>