<svg xmlns="http://www.w3.org/2000/svg" viewBox="0 0 334.93 474.37"><title>Asset 2</title><g id="Layer_2" data-name="Layer 2"><g id="Layer_1-2" data-name="Layer 1"><path d="M230.48,286.93c.05-.3.11-.61.16-.91a17.8,17.8,0,0,0,.36-1.82c.61-3,1.28-6,2-9a228,228,0,0,1,8.53-27.77c7.33-19.13,19-43.26,40.34-49.69,13.86-4.18,27.77,1.57,39.17,9.33,2.27,1.54,3.27-7,1.05-8.68l0,0c-2.18-1.6-2.58,4.72-2.44,5.54.37,2.14,1.55,3.76,2.59,5.62a89,89,0,0,1,4.85,10.12c3.74,9.29,6.32,20.52-.12,29.25-4.41,6-11.55,8.67-17.51,12.75a83.58,83.58,0,0,0-16.62,14.77c-7.88,9.3-13.24,21-13.16,33.36A40.17,40.17,0,0,0,283,325.45c3.18,7.4,3.46,14.83,1.81,22.66-1.38,6.54-3.4,13.77-8,18.84-6,6.62-13.91,11.76-21.3,16.68-9.24,6.16-18.78,11.87-28.4,17.41q-12.36,7.11-25,13.82c-3.28,1.75-8.11,3.24-10.44,6.19-.24.3-.21.78-.38,1.13-.37.76.38-1,0,.05s-.8,2.16-1.23,3.22A87.2,87.2,0,0,1,184.9,436c-5.67,9.83-13.4,18.82-23.48,24.28-13.74,7.44-29.67,6.18-43.78.37-27.44-11.3-49.54-34.77-68.2-57-22.19-26.49-39.27-57.83-44.08-92.4-7.1-51.1,13.76-99.71,40.08-142.26,8.07-13.05,17.43-25.63,24-39.52,4.94-10.39,13.2-18.75,21.84-26.16,11.12-9.53,23.29-17.81,35.54-25.81,26.3-17.17,53.86-32.71,78.59-52.16C216,17,228.19,8.28,242.33,9c8.3.4,15.73,4.55,21.24,10.64A63.25,63.25,0,0,1,271,30.06c5.5,9.34,12.57,22,19.21,32.25,7.82,12.11,15.92,24,24,36,2.64,3.92,6,7.74,5.81,12.73-.26,5.77-3.58,11.51-6.81,16.09C305,138.67,293,147.63,280,152.86c-9.61,3.86-18.49,5.15-27-1.52-14.07-11-20.63-31.45-25.28-47.94-1.07-3.78-2.08-7.59-2.86-11.44-.34-1.66-1.29-2.63-2.71-1.61s-1,4.75-.71,6.16a186.4,186.4,0,0,0,7.76,26.62c4.93,13.48,11.64,29,23.69,37.61,15.14,10.86,35.57-.86,48-10.84,13.49-10.82,27.4-29.13,22-47.54-1.14-3.88-3.5-7.07-5.72-10.39q-4.59-6.83-9.2-13.64C301.13,68.2,294.36,58,287.85,47.73c-5.34-8.47-10.08-17.38-15.28-25.85a17,17,0,0,0-1.15-2.11A59.27,59.27,0,0,0,268,14.69C259.6,3.85,247.12-2.25,233.36.77c-11.81,2.59-21.26,9.88-30.62,17.13C193,25.42,182.82,32.33,172.51,39c-21.18,13.78-43,26.58-63.65,41.2C93.47,91.15,76.45,103.73,67.68,121c-13.1,25.73-30.83,48.78-43.61,74.78C5.44,233.66-4.88,276.23,2.3,318.44c4.3,25.28,14.37,49.08,28.4,70.49A270.05,270.05,0,0,0,87.9,451.8c21.29,16.84,51.3,31.81,77.15,15.65,13.42-8.39,22.94-22.81,28.49-37.41.44-1.17.87-2.34,1.24-3.53l-1.18,2.07c12.45-6.39,24.72-13.16,36.82-20.18,9.72-5.64,19.35-11.46,28.64-17.79,7-4.8,14.46-9.87,20.11-16.33,4.45-5.1,6.61-12.2,8.29-18.61a65.9,65.9,0,0,0,2.25-20.25c-.4-7.27-3.28-13-5.22-19.75-3.49-12.24,4.21-24.86,12.18-33.53a84.84,84.84,0,0,1,19.44-15.35c5.63-3.33,10.85-6.52,14.29-12.27,6.1-10.19,5.28-23.15,2-34.13A85.81,85.81,0,0,0,326.52,206c-.84-1.63-1.73-3.24-2.64-4.83-1.11-1.92-1-3-.42.39L321,207.05l0,0,1.05-8.68c-10.67-7.26-23.6-12.93-36.76-10.48-10.84,2-19.75,8.92-26.71,17.19C244,222.52,236,245.58,230.42,267.34c-1.46,5.68-2.79,11.41-3.76,17.2-.67,4,2.81,8.41,3.82,2.39Z"/><path d="M182.1,220.39c-11.41-5-24.39-8.82-36.82-5.56-10,2.61-17.71,9.59-22.49,18.57-3.83,7.21-5.25,15.75-5.55,23.82-.42,11.23,3.17,24.82,17,23.28,7.61-.85,13.68-5.87,21.07-6.78a177,177,0,0,1,29.36-1.37,77.3,77.3,0,0,1,17.55,2.44c3.25.92,5.55,2.19,8.94,1.47,7.26-1.55,13.76-6.85,18.68-12.16,14.73-15.91,15.23-39.15,1.74-56-13.62-17-25.18-35.56-38.83-52.56-12.2-15.2-27.52-30.73-47.61-34-11.16-1.83-21.16,1.23-31.6,4.8C102.8,130,91.87,133,80.93,136c-6.42,1.78-13,3.6-18.8,7-6.25,3.64-11.25,9-15.6,14.75-3.21,4.21-6.12,8.65-9,13.12a7.83,7.83,0,0,0-.71,6.16c.31,1,1.56,3.43,2.71,1.61,7.9-12.45,16.23-24.71,30.47-30.2,6.63-2.55,13.63-4.15,20.46-6,11-3,21.75-7.12,32.72-10.34,41-12,67.81,30.46,87.72,59,5.43,7.77,10.89,15.52,17,22.81,7,8.41,12.17,18.28,8.29,29.27-2.72,7.7-8.42,14.38-15,19.1-4.94,3.56-10.2,6.45-16.21,4.43-9.36-3.15-19.56-3.55-29.36-3.37-7.46.14-15.56.22-22.89,1.81-8.05,1.75-25.69,14-30.71.38-2.36-6.39-.57-14.73,1.36-20.8,2.53-7.95,10.26-16.53,19.08-19.89,12.62-4.82,26.77-.84,38.57,4.33,2.78,1.22,3.53-7.59,1.05-8.68Z"/><path d="M111.57,206.23c2.78,0,2.8-9,0-9s-2.8,9,0,9Z"/><path d="M110.17,204.92c5.53,9.87,17.77,27,30.93,20.16,2.42-1.26,1.57-10-1.05-8.68-7.15,3.71-14.16-1.64-18.91-6.79a64,64,0,0,1-5.89-7.51c-.59-.87-1.16-1.76-1.72-2.66-.18-.28-1.1-1.88-.54-.89-2.38-4.25-4.06,4.12-2.8,6.36Z"/><path d="M123.57,318.62c12.47-12,27.7-29.63,26-48.11-.12-1.25-.74-3.74-2.44-3.14s-1.49,4.35-1.38,5.54c.8,8.7-7.55,18.68-12.57,25a130.06,130.06,0,0,1-11.61,12.93c-1.83,1.76-.73,10.4,2,7.77Z"/><path d="M203.17,268.55c-4.61,11.85-15,23.17-27.51,26.53-5.29,1.42-11.61,1.85-16.55-.91-7.75-4.33-6.75-13.69-5.63-21.24.59-4-2.92-8.44-3.82-2.39-1.29,8.66-2.13,19,2.74,26.82,3.82,6.11,10.82,8.28,17.74,7.7,16.41-1.39,30.07-15.34,35.83-30.14.7-1.8,1-4.61,0-6.36-.8-1.37-2.08-1.86-2.8,0Z"/><path d="M203.17,150.92c4.73,9.58,9.86,19.09,13.16,29.29,3.43,10.62,7.28,21.12,10.53,31.8,1.7,5.58,4.3-1.66,3.42-4.54-3.41-11.19-7.35-22.23-11-33.33-3.4-10.28-8.5-19.89-13.29-29.58-2.14-4.33-3.93,4.08-2.8,6.36Z"/><path d="M96.48,117.92c4.46-10,17.66-14.12,27.29-16.86,5-1.43,10.12-2.57,15.22-3.69s10.63-3,16-2.56c13.23,1.13,23.86,14.21,30.9,24.32a185.65,185.65,0,0,1,18.29,33.79c.74,1.76,2,1.4,2.8,0,1-1.69.73-4.63,0-6.36a187.12,187.12,0,0,0-19.76-36.15C179.71,100,168.75,87,155,85.81c-5.65-.48-11.6,1.6-17.09,2.8-5.74,1.26-11.46,2.6-17.07,4.32-10.49,3.22-22.36,7.93-27.15,18.63-.78,1.74-1,4.66,0,6.36.85,1.44,2,1.78,2.8,0Z"/><path d="M225.22,106.81c-2.72,12.83-4.85,25.84-6.39,38.86a200.24,200.24,0,0,0-1.74,28.62c.18,7.09.62,15,4.49,21.23,1.12,1.79,2.4-.64,2.71-1.61a7.89,7.89,0,0,0-.71-6.16c-3.07-4.91-2.62-12.33-2.55-17.86a223.47,223.47,0,0,1,2.16-26.15c1.42-10.85,3.18-21.68,5.45-32.39.32-1.52.77-5-.71-6.16s-2.35-.06-2.71,1.61Z"/><path d="M219.71,273.37a32.94,32.94,0,0,1,8.34,3.7c2.32,1.47,3.44-7.16,1.05-8.68a36.47,36.47,0,0,0-9.39-4c-2.16-.62-3,8.14,0,9Z"/><path d="M194.67,292.37a54.83,54.83,0,0,1,12.45-14c1.51-1.18,1.61-3.8,1.38-5.54-.1-.76-.94-4.31-2.44-3.14a58.78,58.78,0,0,0-13.39,14.9,8,8,0,0,0-.71,6.16c.28,1,1.57,3.4,2.71,1.61Z"/></g></g></svg>