<?xml version="1.0" encoding="utf-8"?>
<!-- Generator: Adobe Illustrator 21.1.0, SVG Export Plug-In . SVG Version: 6.00 Build 0)  -->
<svg version="1.1" id="Layer_3" xmlns="http://www.w3.org/2000/svg" xmlns:xlink="http://www.w3.org/1999/xlink" x="0px" y="0px"
	 viewBox="0 0 266.8 87.7" style="enable-background:new 0 0 266.8 87.7;" xml:space="preserve">
<style type="text/css">
	.st0{fill:#4285F4;stroke:#4285F4;stroke-width:5;stroke-miterlimit:10;}
	.st1{fill:none;stroke:#E43B31;stroke-width:7;stroke-miterlimit:10;}
	.st2{fill:none;stroke:#31A04F;stroke-width:9;stroke-miterlimit:10;}
	.st3{fill:none;stroke:#477AF0;stroke-width:7;stroke-miterlimit:10;}
</style>
<path class="st0" d="M56,15.6C27.7-1,9.2,22.6,8.8,38.1c-0.3,11.9,4.9,27.4,27,27.3c27.8-0.2,26.8-21.5,26.8-21.5H35.9v-5.8h32.9
	C68,61.6,54.5,69.9,35.7,69.9S3.9,58,3.9,38.9S17.6,4.6,36.3,4.6c8.2,0,16.7,1.7,22.9,7.1L56,15.6z"/>
<path class="st1" d="M254.2,56c-3.1,5.5-8.6,8.8-14.6,8.8c-7,0-13.1-4.6-15.7-11.2c-0.3-0.7-0.5-1.5-0.7-2.3
	c-0.4-1.6-0.6-3.2-0.6-4.9c0-10.1,7.7-18.4,17.1-18.4c7.1,0,13.6,4.8,16,12l-32,12.8"/>
<line class="st2" x1="211.8" y1="4.2" x2="212.1" y2="68.5"/>
<path class="st3" d="M171.2,74.5c0,0,2.8,8.5,13.9,8.5c11,0,15.6-8.5,15.6-8.5l0.5-31.7l0.1-16.9"/>
<circle class="st3" cx="184.2" cy="46.5" r="16.2"/>
</svg>
