<?xml version="1.0" encoding="utf-8"?>
<!-- Generator: Adobe Illustrator 21.1.0, SVG Export Plug-In . SVG Version: 6.00 Build 0)  -->
<svg version="1.1" id="Layer_5" xmlns="http://www.w3.org/2000/svg" xmlns:xlink="http://www.w3.org/1999/xlink" x="0px" y="0px"
	 viewBox="0 0 241.8 174.1" style="enable-background:new 0 0 241.8 174.1;" xml:space="preserve">
<style type="text/css">
	.st0{stroke:#000000;stroke-miterlimit:10;}
	.st1{fill:#FFFFFF;stroke:#000000;stroke-miterlimit:10;}
</style>
<g>
	<g>
		<path class="st0" d="M1,89.9c0,0,66.9-97.4,123.4-51.9s67.5,75.3,111.7,56.5S0.4,198.4,1,89.9z"/>
		<path class="st1" d="M64.8,135.8c-19.3,0-36-3.1-47.6-11.1C6,117.1,0.4,105.4,0.5,89.9l0-0.2l0.1-0.1C1,89.1,40.4,32.4,83.8,26
			c14.9-2.2,28.6,1.7,40.9,11.6c14.1,11.3,25.2,21.5,35,30.6c25.9,23.8,40.2,37,66.5,29.4c5.8-2.2,10.5-4,13.7-5.2
			c0.3-0.1,0.5-0.2,0.6-0.2c0,0,0.1,0,0.1,0l0,0c0.4-0.1,0.6-0.1,0.7,0.3c0.1,0.3,0.1,0.4-0.3,0.7l0,0c0,0,0,0-0.1,0
			c-0.2,0.1-0.4,0.2-0.8,0.3c-0.8,0.3-2,0.9-3.8,1.6c-3.5,1.5-6.8,2.7-9.9,3.6C192.3,111.1,118.8,135.8,64.8,135.8z M1.5,90.1
			c-0.1,15,5.4,26.4,16.2,33.8c41.6,28.5,151-5.6,201.1-23.7c-22.2,3.4-36.3-9.6-59.9-31.3c-9.8-9-20.9-19.2-34.9-30.5
			C112,28.7,98.5,24.8,83.9,27C41.9,33.1,3.6,87.1,1.5,90.1z"/>
	</g>
	<g>
		<path class="st0" d="M7.2,135.2c0,0,9,54.4,68.7,32.8C75.9,168.3,33.5,186.2,7.2,135.2z"/>
		<path class="st1" d="M50.1,173.6c-8.1,0-15.4-1.8-21.7-5.5c-17.9-10.5-21.7-32.5-21.8-32.8l-0.5-3.1l1.5,2.8
			c9.5,18.4,22.2,29.9,37.6,34.1c9.9,2.7,19.1,1.6,24.7,0.3c1.9-0.6,3.8-1.2,5.7-1.9l0.7-0.2v0.7c0,0.1-0.1,0.3-0.3,0.4l0,0
			c-0.1,0-0.1,0-0.2,0.1c-1.4,0.8-4.9,1.7-5.4,1.8c0,0,0,0,0,0C63.1,172.5,56.4,173.6,50.1,173.6z M8.6,138.9
			c1.9,6.7,7.3,20.7,20.4,28.4c8.5,5,18.9,6.5,30.8,4.6C45.6,172.3,24.6,167.2,8.6,138.9z"/>
	</g>
	<g>
		<path class="st0" d="M227.4,65.1c0,0-28.1,45.7,0,51.3C226.8,115.8,206.7,108.8,227.4,65.1z"/>
		<path class="st1" d="M228.8,117.2l-1.5-0.3c-5.6-1.1-9.5-4-11.4-8.4C209.4,93.7,226.3,66,227,64.8l0.9,0.5
			c-12.1,25.5-12.3,43.9-0.6,50.4c0.3,0.2,0.4,0.2,0.5,0.4L228.8,117.2z M222.1,76.4c-4.4,9.5-9,23.1-5.3,31.7c1.4,3.3,4,5.6,7.7,7
			C218.7,110.5,213.4,100.1,222.1,76.4z"/>
	</g>
	<g>
		<path class="st0" d="M17.2,55c0,0,5.3-53.3,58.7-54s89.3,57,89.3,57S112,2.5,75.9,7.7S22.2,34.5,17.2,55z"/>
		<path class="st1" d="M168.2,61.8l-3.3-3.5C164.3,57.8,111.4,3,75.9,8.2c-30.4,4.4-52.2,22-58.3,47l-1-0.2c0-0.1,1.4-13.6,9.4-27
			c7.4-12.4,22-27.1,49.8-27.5c53-0.7,89.4,56.7,89.8,57.2L168.2,61.8z M80.7,6.8c29.9,0,68.8,35.2,81,47
			c-9.7-13.3-41.7-52.4-85-52.4c-0.3,0-0.6,0-0.9,0C48.6,1.8,34.2,16.4,27,28.5c-3.9,6.5-6.2,13-7.5,17.9
			c8.6-20.9,29-35.3,56.3-39.3C77.4,6.9,79.1,6.8,80.7,6.8z"/>
	</g>
	<path class="st1" d="M17.2,69.5c0,0,93.7-21,108.7-4.4c1-0.4,5-20.4,5-20.4S91.2,2.1,17.2,69.5z"/>
</g>
</svg>
